<?xml version='1.0' encoding='utf-8'?>
<!DOCTYPE svg PUBLIC '-//W3C//DTD SVG 1.1//EN' 'http://www.w3.org/Graphics/SVG/1.1/DTD/svg11.dtd'>
<svg width="100" version="1.1" xmlns="http://www.w3.org/2000/svg" height="100" viewBox="0 0 100 100" xmlns:xlink="http://www.w3.org/1999/xlink" enable-background="new 0 0 100 100">
  <path d="m50,55.022c-2.773,0-5.022-2.249-5.022-5.022 0-2.774 2.249-5.022 5.022-5.022s5.022,2.249 5.022,5.022c0,2.773-2.249,5.022-5.022,5.022zm45-5.022c0,24.854-20.146,45-45,45-24.853,0-45-20.146-45-45 0-24.853 20.147-45 45-45 24.854,0 45,20.147 45,45zm-2.896,0c0-23.253-18.851-42.103-42.104-42.103s-42.103,18.85-42.103,42.103 18.85,42.104 42.103,42.104 42.104-18.851 42.104-42.104zm-1.788,0c0,9.074-2.998,17.448-8.058,24.186-0.475,0.631-0.969,1.247-1.479,1.85-3.861,4.561-8.717,8.253-14.233,10.74-0.931,0.419-1.88,0.803-2.846,1.151-4.277,1.546-8.891,2.39-13.701,2.39s-9.423-0.844-13.701-2.39c-0.744-0.269-1.478-0.56-2.201-0.87-5.565-2.391-10.483-5.999-14.42-10.488-0.52-0.594-1.023-1.201-1.508-1.824-5.317-6.832-8.485-15.418-8.485-24.745 0-0.438 0.009-0.874 0.023-1.308 0.018-0.557 0.045-1.111 0.086-1.662 0.449-6.175 2.289-11.963 5.208-17.055 0.393-0.686 0.808-1.357 1.239-2.017 5.092-7.783 12.8-13.698 21.877-16.495 0.979-0.301 1.975-0.566 2.984-0.793 2.863-0.645 5.841-0.987 8.898-0.987 3.07,0 6.061,0.345 8.935,0.995 0.767,0.174 1.524,0.369 2.273,0.585 9.14,2.64 16.943,8.425 22.163,16.108 0.443,0.652 0.866,1.318 1.271,1.997 3.011,5.045 4.95,10.802 5.506,16.959 0.05,0.55 0.091,1.103 0.118,1.66 0.034,0.668 0.051,1.339 0.051,2.013zm-8.573-18.986l-16.021,9.083-1.206,.684c-1.477,1.163-2.148,3.165-1.534,5.056 0.561,1.724 2.038,2.892 3.717,3.142l2.354-.266 17.783-2.009c-0.503-5.701-2.299-11.029-5.093-15.69zm-23.57,4.995c-0.007,0.043-0.012,0.086-0.016,0.129-0.054,0.611 0.203,1.234 0.736,1.621 0.528,0.384 1.195,0.438 1.757,0.204 0.047-0.02 0.093-0.041 0.138-0.064l19.519-9.098c-4.685-6.685-11.523-11.749-19.51-14.183l-2.624,21.391zm-1.989,13.991c0-3.415-2.769-6.184-6.184-6.184s-6.184,2.769-6.184,6.184 2.769,6.184 6.184,6.184 6.184-2.769 6.184-6.184zm-6.236,7.526c-0.976,0-1.767,0.791-1.767,1.767 0,0.977 0.791,1.768 1.767,1.768s1.767-0.791 1.767-1.768c0-0.976-0.791-1.767-1.767-1.767zm-5.441-13.325c0.976,0 1.767-0.792 1.767-1.768 0-0.976-0.791-1.767-1.767-1.767s-1.767,0.792-1.767,1.767c7.10543e-15,0.977 0.791,1.768 1.767,1.768zm-3.394,6.913c-0.976,0-1.767,0.791-1.767,1.767 0,0.977 0.791,1.768 1.767,1.768s1.767-0.791 1.767-1.768c0-0.976-0.791-1.767-1.767-1.767zm16.147-8.68c0-0.976-0.791-1.767-1.767-1.767-0.977,0-1.768,0.792-1.768,1.767 0,0.976 0.791,1.768 1.768,1.768 0.976-0.001 1.767-0.792 1.767-1.768zm-.14,10.447c0,0.977 0.791,1.768 1.768,1.768 0.976,0 1.767-0.791 1.767-1.768 0-0.976-0.791-1.767-1.767-1.767-0.977,0-1.768,0.791-1.768,1.767zm-15.351-38.944l3.631,17.762 .389,1.901c0.715,1.626 2.339,2.762 4.23,2.762 1.89,0 3.514-1.136 4.23-2.761l.389-1.903 3.63-17.754c-2.658-0.607-5.426-0.928-8.268-0.928-2.829,1.77636e-15-5.584,0.319-8.231,0.921zm-22.444,15.395l19.683,8.76c0.041,0.02 0.082,0.038 0.124,0.055 0.568,0.229 1.238,0.165 1.763-0.23 0.522-0.393 0.768-1.014 0.709-1.62-0.005-0.051-0.012-0.102-0.021-0.152l-2.995-21.332c-7.932,2.571-14.69,7.746-19.263,14.519zm-6.213,18.015l18.165,1.732 1.697,.162c1.812-0.167 3.43-1.401 3.995-3.249 0.542-1.772-0.036-3.62-1.328-4.784l-1.879-1.023-15.833-8.616c-2.71,4.704-4.412,10.062-4.817,15.778zm22.045,9.174c0.037-0.036 0.071-0.073 0.104-0.112 0.396-0.462 0.551-1.112 0.349-1.733-0.202-0.624-0.712-1.06-1.307-1.199-0.046-0.011-0.093-0.02-0.141-0.027l-21.139-4.112c-0.004,0.221-0.008,0.441-0.008,0.663 0,8.363 2.777,16.077 7.458,22.272l14.684-15.752zm7.879,10.876l.704-1.55c0.433-1.768-0.208-3.701-1.771-4.837-1.495-1.086-3.422-1.145-4.941-0.312l-1.604,1.468-13.287,12.153c3.635,4.161 8.187,7.5 13.34,9.703l7.559-16.625zm8.072,21.27c0-0.648-0.496-1.174-1.108-1.174-0.612,0-1.109,0.525-1.109,1.174s0.497,1.174 1.109,1.174c0.612-1.42109e-14 1.108-0.526 1.108-1.174zm10.954-3.696l-10.45-18.845c-0.021-0.041-0.043-0.081-0.066-0.121-0.316-0.523-0.89-0.875-1.546-0.875-0.655,0-1.227,0.35-1.544,0.872-0.025,0.041-0.048,0.083-0.069,0.126l-10.449,18.843c3.781,1.304 7.838,2.014 12.062,2.014s8.281-0.711 12.062-2.014zm16.22-11.143l-13.683-12.084-1.244-1.099c-1.567-0.942-3.612-0.899-5.162,0.27-1.479,1.114-2.099,2.947-1.739,4.647l.922,1.937 7.738,16.265c5.11-2.291 9.604-5.708 13.168-9.936zm8.702-23.828c0-0.438-0.011-0.874-0.025-1.308l-21.062,4.48c-0.049,0.009-0.096,0.019-0.143,0.03-0.592,0.15-1.094,0.595-1.285,1.222-0.191,0.626-0.024,1.274 0.382,1.729 0.032,0.037 0.066,0.072 0.103,0.106l14.956,15.494c4.447-6.105 7.074-13.622 7.074-21.753z"/>
</svg>
