<?xml version='1.0' encoding='utf-8'?>
<!DOCTYPE svg PUBLIC '-//W3C//DTD SVG 1.1//EN' 'http://www.w3.org/Graphics/SVG/1.1/DTD/svg11.dtd'>
<svg width="100" version="1.1" xmlns="http://www.w3.org/2000/svg" height="100" viewBox="0 0 100 100" xmlns:xlink="http://www.w3.org/1999/xlink" enable-background="new 0 0 100 100">
  <path d="m50,5c-24.853,0-45,20.147-45,45 0,24.854 20.147,45 45,45 24.854,0 45-20.146 45-45 0-24.853-20.146-45-45-45zm0,87.104c-23.253,0-42.103-18.851-42.103-42.104s18.85-42.103 42.103-42.103 42.104,18.85 42.104,42.103-18.851,42.104-42.104,42.104zm0-50.423c-4.595,0-8.319,3.725-8.319,8.319s3.725,8.319 8.319,8.319 8.319-3.725 8.319-8.319-3.724-8.319-8.319-8.319zm0,14.013c-3.145,0-5.694-2.55-5.694-5.694s2.549-5.694 5.694-5.694 5.693,2.549 5.693,5.694-2.548,5.694-5.693,5.694zm0-17.144c-6.323,0-11.45,5.126-11.45,11.45s5.127,11.45 11.45,11.45 11.45-5.127 11.45-11.45-5.127-11.45-11.45-11.45zm0,20.723c-5.122,0-9.273-4.152-9.273-9.273 0-5.122 4.152-9.273 9.273-9.273 5.121,0 9.273,4.152 9.273,9.273 7.10543e-15,5.121-4.152,9.273-9.273,9.273zm0-49.589c-22.266,1.77636e-15-40.316,18.05-40.316,40.316 1.77636e-15,22.267 18.05,40.316 40.316,40.316 22.267,0 40.316-18.05 40.316-40.316 0-22.266-18.049-40.316-40.316-40.316zm35.439,34.047l-17.453,1.766c-1.408,0.198-2.23-1.025-2.906-2.19l-1.566-2.714c-0.696-1.326-1.306-2.558-0.373-3.63l10.979-13.666c5.815,5.255 9.905,12.383 11.319,20.434zm-12.678-21.603l-11.998,12.768c-0.803,0.924-1.999,0.864-3.104,0.508l-3.614-1.315c-1.35-0.535-2.469-1.147-2.469-2.534l-.681-17.528c8.288,0.202 15.879,3.207 21.866,8.101zm-10.403,27.872c0,6.825-5.533,12.358-12.358,12.358s-12.358-5.533-12.358-12.358 5.533-12.358 12.358-12.358 12.358,5.533 12.358,12.358zm-13.253-35.973l-.68,17.528c0,1.247-1.007,1.956-2.107,2.402l-3.975,1.447c-1.106,0.355-2.302,0.416-3.105-0.508l-11.999-12.768c5.987-4.894 13.578-7.899 21.866-8.101zm-23.225,9.269l10.979,13.666c0.934,1.074 0.322,2.307-0.375,3.635l-1.563,2.707c-0.675,1.167-1.499,2.391-2.908,2.193l-17.453-1.766c1.415-8.051 5.505-15.179 11.32-20.435zm-11.865,26.704c0-1.524 0.096-3.025 0.28-4.5l17.28,3.117c1.4,0.196 1.578,1.433 1.918,2.881l.554,3.141-.004-.004c0.013,0.059 0.023,0.117 0.034,0.177l.023,.128c0.202,1.227 0.036,2.554-1.09,3.229l-14.4,9.432c-2.925-5.204-4.595-11.206-4.595-17.601zm5.523,19.161l15.095-8.291c1.219-0.732 2.348-0.029 3.535,0.888l2.6,2.182-.001,.001c0.008,0.006 0.017,0.013 0.025,0.02l.445,.373c0.852,0.769 1.507,1.74 1.114,2.882l-4.972,16.492c-7.419-2.78-13.675-7.937-17.841-14.547zm30.462,20.378c-0.77,0-1.394-0.624-1.394-1.395 0-0.77 0.624-1.394 1.394-1.394 0.77,0 1.394,0.624 1.394,1.394 0,0.771-0.624,1.395-1.394,1.395zm0-3.554c-3.802,0-7.466-0.592-10.906-1.685l6.236-16.061c0.463-1.346 1.776-1.529 3.275-1.59h2.788c1.499,0.061 2.812,0.244 3.275,1.59l6.237,16.061c-3.439,1.094-7.103,1.685-10.905,1.685zm12.62-2.278l-4.972-16.492c-0.394-1.142 0.263-2.113 1.114-2.882l.443-.372c0.009-0.007 0.018-0.014 0.026-0.021l-.001-.001 2.6-2.182c1.188-0.917 2.316-1.62 3.536-0.888l15.095,8.292c-4.165,6.61-10.421,11.767-17.841,14.546zm4.37-25.537c-1.128-0.678-1.293-2.007-1.09-3.236l.021-.115c0.012-0.062 0.022-0.122 0.036-0.184l-.004,.004 .553-3.138c0.341-1.449 0.519-2.688 1.919-2.884l17.28-3.117c0.185,1.475 0.28,2.976 0.28,4.5 0,6.395-1.671,12.397-4.595,17.602l-14.4-9.432z"/>
</svg>
