<?xml version='1.0' encoding='utf-8'?>
<!DOCTYPE svg PUBLIC '-//W3C//DTD SVG 1.1//EN' 'http://www.w3.org/Graphics/SVG/1.1/DTD/svg11.dtd'>
<svg width="100" version="1.1" xmlns="http://www.w3.org/2000/svg" height="100" viewBox="0 0 100 100" xmlns:xlink="http://www.w3.org/1999/xlink" enable-background="new 0 0 100 100">
  <g>
    <path d="M50,8.722C27.203,8.722,8.722,27.203,8.722,50c0,22.797,18.48,41.278,41.278,41.278c22.797,0,41.278-18.481,41.278-41.278   C91.278,27.203,72.797,8.722,50,8.722z M50,86.843c-20.348,0-36.843-16.495-36.843-36.843c0-20.348,16.495-36.843,36.843-36.843   c20.348,0,36.843,16.495,36.843,36.843C86.843,70.348,70.348,86.843,50,86.843z"/>
    <path d="M50,5C25.147,5,5,25.147,5,50c0,24.854,20.147,45,45,45c24.854,0,45-20.146,45-45C95,25.147,74.854,5,50,5z M50,92.104   C26.747,92.104,7.897,73.253,7.897,50S26.747,7.897,50,7.897S92.104,26.747,92.104,50S73.253,92.104,50,92.104z"/>
    <path d="m50,41.574c-4.653,0-8.426,3.772-8.426,8.426 0,4.653 3.773,8.426 8.426,8.426s8.426-3.772 8.426-8.426c0-4.654-3.773-8.426-8.426-8.426zm0,15.39c-3.846,0-6.964-3.118-6.964-6.964 0-3.846 3.118-6.964 6.964-6.964 3.846,0 6.964,3.118 6.964,6.964 0,3.846-3.118,6.964-6.964,6.964z"/>
    <circle cx="50" cy="50" r="5.641"/>
    <path d="m50,30.387c-10.832,0-19.613,8.782-19.613,19.613 0,10.832 8.781,19.614 19.613,19.614s19.613-8.783 19.613-19.614c0-10.832-8.781-19.613-19.613-19.613zm7.612,3.993c1.237,0 2.24,1.003 2.24,2.241s-1.003,2.241-2.24,2.241-2.241-1.003-2.241-2.241 1.004-2.241 2.241-2.241zm-15.224,0c1.238,0 2.241,1.003 2.241,2.241s-1.003,2.241-2.241,2.241c-1.237,0-2.24-1.003-2.24-2.241s1.002-2.241 2.24-2.241zm-7.837,17.86c-1.237,0-2.241-1.003-2.241-2.24s1.003-2.241 2.241-2.241 2.241,1.003 2.241,2.241-1.004,2.24-2.241,2.24zm7.837,13.38c-1.237,0-2.24-1.004-2.24-2.241s1.003-2.24 2.24-2.24c1.238,0 2.241,1.003 2.241,2.24s-1.004,2.241-2.241,2.241zm15.224,0c-1.237,0-2.241-1.004-2.241-2.241s1.004-2.24 2.241-2.24 2.24,1.003 2.24,2.24-1.002,2.241-2.24,2.241zm-7.612-4.384c-6.205,0-11.236-5.03-11.236-11.236 0-6.206 5.031-11.236 11.236-11.236s11.236,5.03 11.236,11.236c0,6.206-5.031,11.236-11.236,11.236zm15.449-8.996c-1.237,0-2.24-1.003-2.24-2.24s1.003-2.241 2.24-2.241 2.24,1.003 2.24,2.241-1.002,2.24-2.24,2.24z"/>
    <path d="m75.053,24.948c-13.836-13.836-36.269-13.836-50.104,0-13.835,13.835-13.835,36.268 0,50.104 13.836,13.836 36.269,13.836 50.104,0 13.835-13.836 13.835-36.268 0-50.104zm-9.041,1.063c2.203-2.203 5.774-2.203 7.978,0 2.203,2.203 2.203,5.774 0,7.977-2.203,2.203-5.774,2.203-7.978,0-2.202-2.203-2.202-5.774 0-7.977zm-1.157,38.844c-8.204,8.204-21.507,8.203-29.71-0.001-8.204-8.204-8.205-21.506 0-29.71 8.204-8.205 21.506-8.204 29.71,0s8.206,21.506 0,29.711zm-14.855-48.781c3.115,3.55271e-15 5.641,2.526 5.641,5.641 0,3.115-2.525,5.641-5.641,5.641s-5.641-2.526-5.641-5.641c0-3.115 2.526-5.641 5.641-5.641zm-23.989,9.937c2.203-2.203 5.774-2.203 7.977,0s2.203,5.774 0,7.977c-2.203,2.203-5.774,2.203-7.977,0-2.202-2.203-2.203-5.775 0-7.977zm-9.936,23.989c0-3.116 2.525-5.641 5.641-5.641s5.641,2.525 5.641,5.641c0,3.115-2.525,5.641-5.641,5.641s-5.641-2.526-5.641-5.641zm17.913,23.989c-2.203,2.202-5.774,2.202-7.977,0-2.203-2.203-2.203-5.774 0-7.978s5.774-2.203 7.977,0 2.203,5.775 0,7.978zm16.012,9.937c-3.115,0-5.641-2.525-5.641-5.641s2.525-5.641 5.641-5.641 5.641,2.525 5.641,5.641-2.526,5.641-5.641,5.641zm23.989-9.937c-2.203,2.202-5.774,2.202-7.978-0.001-2.202-2.202-2.202-5.773 0-7.977 2.203-2.203 5.774-2.203 7.978,0 2.202,2.204 2.203,5.775 0,7.978zm4.296-18.348c-3.115,0-5.641-2.525-5.641-5.641s2.525-5.641 5.641-5.641 5.641,2.525 5.641,5.641-2.526,5.641-5.641,5.641z"/>
  </g>
</svg>
