<?xml version='1.0' encoding='utf-8'?>
<!DOCTYPE svg PUBLIC '-//W3C//DTD SVG 1.1//EN' 'http://www.w3.org/Graphics/SVG/1.1/DTD/svg11.dtd'>
<svg width="100" version="1.1" xmlns="http://www.w3.org/2000/svg" height="100" viewBox="0 0 100 100" xmlns:xlink="http://www.w3.org/1999/xlink" enable-background="new 0 0 100 100">
  <path d="m92.537,35.354c-8.092-23.492-33.69-35.979-57.184-27.89-23.491,8.088-35.979,33.69-27.89,57.183 8.091,23.491 33.691,35.979 57.183,27.89 23.493-8.091 35.98-33.69 27.891-57.183zm-28.833,54.443c-21.979,7.569-45.932-4.112-53.501-26.094-7.57-21.979 4.113-45.934 26.095-53.5 21.979-7.57 45.932,4.114 53.5,26.094 7.569,21.979-4.116,45.932-26.094,53.5zm24.405-52.92c-7.248-21.046-30.184-32.232-51.231-24.986-21.045,7.247-32.232,30.183-24.986,51.231 7.248,21.048 30.182,32.233 51.232,24.986 21.045-7.247 32.231-30.182 24.985-51.231zm-4.137,1.426c0.434,1.259 0.791,2.526 1.078,3.795-5.36,1-18.906,3.332-19.655,1.524-0.75-1.811 10.558-9.675 15.053-12.711 1.423,2.275 2.613,4.746 3.524,7.392zm-4.608-9.019c-4.566,2.973-16.197,10.317-17.582,8.934-1.385-1.385 6.046-12.97 9.039-17.5 3.273,2.323 6.174,5.204 8.543,8.566zm-17.601,22.263c-0.854,0.854-2.24,0.854-3.095,0s-0.854-2.24 0-3.094c0.854-0.854 2.24-0.854 3.095,0 0.853,0.854 0.853,2.239 0,3.094zm7.433-31.917c-3.085,4.499-11.012,15.723-12.819,14.975-1.811-0.75 0.621-14.297 1.654-19.627 3.963,0.913 7.74,2.49 11.165,4.652zm-19.196,36.477c-3.373,0-6.107-2.734-6.107-6.107s2.734-6.107 6.107-6.107 6.107,2.734 6.107,6.107-2.734,6.107-6.107,6.107zm1.547,5.577c-0.854,0.854-2.24,0.854-3.094,0-0.854-0.854-0.854-2.239 0-3.094 0.854-0.854 2.24-0.854 3.094,0 0.854,0.854 0.854,2.24 0,3.094zm-3.094-23.369c0.854-0.854 2.24-0.854 3.094,0 0.854,0.854 0.854,2.239 0,3.094-0.854,0.854-2.24,0.854-3.094,0-0.854-0.854-0.854-2.24 0-3.094zm7.661-23.725c-1.127,5.333-4.157,18.747-6.114,18.747-1.959,0-4.897-13.449-5.982-18.767 4.079-0.694 8.164-0.662 12.096,0.02zm-17.81,1.438c1.259-0.434 2.526-0.791 3.795-1.078 1,5.36 3.332,18.907 1.524,19.655-1.811,0.75-9.675-10.557-12.711-15.053 2.275-1.423 4.746-2.613 7.392-3.524zm3.106,35.519c-0.854,0.854-2.24,0.854-3.094,0s-0.854-2.24 0-3.094c0.854-0.854 2.24-0.854 3.094,0 0.855,0.854 0.855,2.239 0,3.094zm-12.125-30.911c2.973,4.567 10.317,16.198 8.933,17.582-1.385,1.385-12.969-6.045-17.499-9.039 2.323-3.273 5.204-6.174 8.566-8.543zm-9.654,10.168c4.499,3.084 15.723,11.012 14.975,12.819-0.75,1.81-14.297-0.622-19.627-1.655 0.913-3.962 2.49-7.739 4.652-11.164zm-5.04,13.081c5.333,1.127 18.746,4.157 18.746,6.114 0,1.959-13.449,4.897-18.767,5.983-0.694-4.08-0.662-8.164 0.021-12.097zm1.437,17.811c-0.433-1.259-0.791-2.526-1.078-3.796 5.361-0.999 18.907-3.332 19.656-1.524 0.75,1.812-10.558,9.677-15.053,12.712-1.424-2.275-2.613-4.745-3.525-7.392zm4.608,9.02c4.566-2.973 16.198-10.317 17.582-8.934 1.386,1.385-6.045,12.971-9.039,17.499-3.273-2.322-6.174-5.204-8.543-8.565zm10.168,9.653c3.085-4.499 11.012-15.724 12.82-14.975 1.81,0.75-0.622,14.298-1.655,19.627-3.962-0.913-7.74-2.49-11.165-4.652zm13.082,5.04c1.127-5.333 4.157-18.747 6.114-18.747 1.959,0 4.897,13.448 5.982,18.768-4.079,0.693-8.163,0.662-12.096-0.021zm17.811-1.438c-1.26,0.434-2.526,0.791-3.796,1.078-1-5.36-3.332-18.906-1.524-19.655 1.811-0.75 9.676,10.559 12.712,15.054-2.276,1.423-4.746,2.612-7.392,3.523zm9.02-4.608c-2.973-4.566-10.318-16.197-8.934-17.581 1.385-1.386 12.97,6.045 17.499,9.039-2.322,3.273-5.204,6.173-8.565,8.542zm9.653-10.168c-4.499-3.084-15.724-11.012-14.976-12.819 0.75-1.811 14.298,0.622 19.628,1.654-0.913,3.963-2.49,7.74-4.652,11.165zm5.039-13.081c-5.332-1.128-18.746-4.158-18.746-6.114 0-1.959 13.448-4.897 18.767-5.982 0.694,4.079 0.663,8.163-0.021,12.096zm-31.32-6.114c0,2.258-1.831,4.089-4.089,4.089-2.258,0-4.089-1.831-4.089-4.089 0-2.258 1.831-4.088 4.089-4.088 2.258,0 4.089,1.83 4.089,4.088z"/>
</svg>
