<?xml version='1.0' encoding='utf-8'?>
<!DOCTYPE svg PUBLIC '-//W3C//DTD SVG 1.1//EN' 'http://www.w3.org/Graphics/SVG/1.1/DTD/svg11.dtd'>
<svg width="100" version="1.1" xmlns="http://www.w3.org/2000/svg" height="100" viewBox="0 0 100 100" xmlns:xlink="http://www.w3.org/1999/xlink" enable-background="new 0 0 100 100">
  <path d="m50,5c-24.853,0-45,20.147-45,45 0,24.854 20.147,45 45,45 24.854,0 45-20.146 45-45 0-24.853-20.146-45-45-45zm0,87.104c-23.253,0-42.103-18.851-42.103-42.104s18.85-42.103 42.103-42.103 42.104,18.85 42.104,42.103-18.851,42.104-42.104,42.104zm-11.856-44.31c-0.912,0-1.651-0.74-1.651-1.652s0.739-1.652 1.651-1.652c0.913,0 1.652,0.74 1.652,1.652s-0.74,1.652-1.652,1.652zm17.794-6.282c0.606,0 1.098,0.492 1.098,1.098 0,0.606-0.491,1.098-1.098,1.098s-1.098-0.491-1.098-1.098c0-0.606 0.491-1.098 1.098-1.098zm-5.938-5.636c0.912,0 1.651,0.739 1.651,1.651 0,0.913-0.739,1.651-1.651,1.651s-1.651-0.739-1.651-1.651c0-0.911 0.739-1.651 1.651-1.651zm-5.938,5.636c0.606,0 1.098,0.492 1.098,1.098 0,0.606-0.492,1.098-1.098,1.098s-1.098-0.491-1.098-1.098c0.001-0.606 0.493-1.098 1.098-1.098zm-4.208,11.609c0-0.605 0.491-1.097 1.098-1.097s1.098,0.491 1.098,1.097c0,0.606-0.491,1.099-1.098,1.099s-1.098-0.492-1.098-1.099zm2.818,8.61c-0.912,0-1.651-0.739-1.651-1.651 0-0.913 0.739-1.651 1.651-1.651 0.913,0 1.652,0.738 1.652,1.651 0,0.912-0.739,1.651-1.652,1.651zm7.328-1.09c-0.606,0-1.098-0.492-1.098-1.098 0-0.606 0.492-1.098 1.098-1.098s1.098,0.491 1.098,1.098c0,0.605-0.492,1.098-1.098,1.098zm0-2.809c-4.362,0-7.91-3.549-7.91-7.911s3.548-7.911 7.91-7.911c4.361,0 7.91,3.549 7.91,7.911s-3.549,7.911-7.91,7.911zm7.328,3.899c-0.913,0-1.652-0.739-1.652-1.651 0-0.913 0.739-1.651 1.652-1.651 0.911,0 1.651,0.738 1.651,1.651-7.10543e-15,0.912-0.74,1.651-1.651,1.651zm1.72-7.511c-0.605,0-1.097-0.492-1.097-1.099 0-0.605 0.491-1.097 1.097-1.097 0.606,0 1.099,0.491 1.099,1.097-0.001,0.607-0.493,1.099-1.099,1.099zm2.808-6.426c-0.912,0-1.651-0.74-1.651-1.652s0.739-1.651 1.651-1.651 1.651,0.739 1.651,1.651-0.738,1.652-1.651,1.652zm-11.856-38.702c-22.593,1.77636e-15-40.908,18.315-40.908,40.908s18.315,40.908 40.908,40.908 40.908-18.315 40.908-40.908-18.315-40.908-40.908-40.908zm34.178,28.04c-6.436,1.999-19.615,5.783-22.456,4.196-0.69-3.178 6.777-14.67 10.572-20.243 5.32,4.107 9.474,9.649 11.884,16.047zm-13.566-17.272c-4.188,5.409-13.004,16.299-16.125,16.318-2.508-1.865-3.239-15.842-3.447-22.675 7.251,0.203 13.973,2.52 19.572,6.357zm-21.652-6.357c-0.208,6.833-0.939,20.81-3.448,22.675-3.12-0.019-11.937-10.909-16.125-16.318 5.6-3.837 12.321-6.154 19.573-6.357zm-21.254,7.581c3.85,5.654 11.481,17.402 10.536,20.376-2.55,1.811-16.079-1.817-22.639-3.73 2.372-6.65 6.618-12.411 12.103-16.646zm-14.219,28.916c0-3.574 0.516-7.027 1.473-10.292 6.526,2.342 19.895,7.473 20.544,10.418-0.598,2.956-13.877,8.321-20.361,10.776-1.076-3.443-1.656-7.104-1.656-10.902zm2.335,12.868c6.436-1.999 19.616-5.783 22.457-4.195 0.69,3.178-6.777,14.67-10.572,20.243-5.321-4.107-9.475-9.65-11.885-16.048zm13.566,17.272c4.188-5.408 13.004-16.299 16.125-16.317 2.508,1.865 3.239,15.842 3.448,22.675-7.253-0.203-13.974-2.521-19.573-6.358zm16.174-18.53c-0.007,0-0.022,0-0.034,0.021l-.012,.021c-0.573,1.035-1.663,1.679-2.845,1.679-1.792,0-3.251-1.459-3.251-3.251 0-0.779 0.282-1.534 0.794-2.126l.014-.017 .098-.108c0.001-0.003 0.001-0.006 0.001-0.01l-.021-.064-2.725-8.395c-0.004-0.009-0.01-0.017-0.017-0.021l-.177-.036c-1.467-0.35-2.496-1.65-2.496-3.161 0-1.792 1.458-3.251 3.251-3.251 0.429,0 0.851,0.085 1.252,0.253l.15,.073c0.007,0.002 0.011,0.002 0.014,0.002l.001,.001 .094-.07 7.119-5.169c0.004-0.004 0.005-0.011 0.006-0.017l-.015-.105c-0.011-0.109-0.017-0.221-0.017-0.332 0-1.792 1.458-3.25 3.251-3.25s3.251,1.458 3.251,3.25c0,0.11-0.006,0.223-0.017,0.334l-.015,.101c0.001,0.007 0.002,0.014 0.01,0.022 0.015,0.01 0.038,0.025 0.038,0.025l7.104,5.162 .082,.06-.01,.015 .095,.182-.088-.209 .087-.046 .065-.028c0.402-0.168 0.824-0.254 1.253-0.254 1.792,0 3.251,1.458 3.251,3.251 0,1.517-1.031,2.818-2.508,3.164-0.014,0.003-0.089,0.021-0.089,0.021l-.078,.013c-0.006,0.004-0.011,0.011-0.014,0.017 0,0.001-0.001,0.001-0.001,0.001s0.001-0.003 0.002-0.007l-.012,.045-2.735,8.416c-0.001,0.009-0.001,0.014 0.001,0.018l.032,.036h-0.001l.084,.093c0.507,0.584 0.789,1.34 0.789,2.121 0,1.792-1.458,3.251-3.25,3.251-1.183,0-2.272-0.644-2.846-1.679l-.014-.025c-0.011-0.017-0.024-0.017-0.031-0.017h-8.87zm5.478,24.887c0.208-6.833 0.939-20.81 3.447-22.675 3.12,0.019 11.938,10.909 16.125,16.317-5.599,3.838-12.321,6.156-19.572,6.358zm21.254-7.581c-3.851-5.655-11.481-17.403-10.535-20.376 2.551-1.811 16.078,1.817 22.639,3.729-2.374,6.652-6.619,12.412-12.104,16.647zm-7.798-29.042c0.598-2.956 13.877-8.32 20.36-10.776 1.076,3.443 1.656,7.105 1.656,10.902 0,3.574-0.516,7.027-1.474,10.292-6.525-2.343-19.892-7.474-20.542-10.418z"/>
</svg>
