<?xml version='1.0' encoding='utf-8'?>
<!DOCTYPE svg PUBLIC '-//W3C//DTD SVG 1.1//EN' 'http://www.w3.org/Graphics/SVG/1.1/DTD/svg11.dtd'>
<svg width="100" version="1.1" xmlns="http://www.w3.org/2000/svg" height="100" viewBox="0 0 100 100" xmlns:xlink="http://www.w3.org/1999/xlink" enable-background="new 0 0 100 100">
  <path d="m50,5.001c-24.852,0.001-44.999,20.148-45,44.999 0.001,24.853 20.147,44.999 45,45 24.853-0.002 44.999-20.147 45-45 0-24.852-20.146-45-45-44.999zm0,87.101c-23.252,0.002-42.1-18.85-42.101-42.101-0.002-23.252 18.847-42.102 42.1-42.102 23.254-8.88178e-16 42.104,18.849 42.103,42.102 0.002,23.251-18.85,42.102-42.102,42.101zm0-82.418c-22.268,0.001-40.314,18.049-40.316,40.317 0.001,22.265 18.05,40.313 40.316,40.315 22.266-0.001 40.315-18.051 40.316-40.316 0-22.264-18.05-40.314-40.316-40.316zm35.874,38.184l-10.444,.689c-1.58,0.104-3.181-0.999-3.556-2.45l-.858-3.319c-0.375-1.452 0.489-3.192 1.923-3.867l9.474-4.462c1.968,4.099 3.181,8.628 3.461,13.409zm-5.704-17.398l-8.75,5.743c-1.324,0.869-3.26,0.698-4.301-0.381l-2.382-2.466c-1.041-1.079-1.146-3.019-0.23-4.312l6.04-8.539c3.814,2.663 7.089,6.047 9.623,9.955zm-13.81-12.477l-4.705,9.346c-0.713,1.414-2.475,2.233-3.916,1.82l-3.295-.944c-1.441-0.414-2.502-2.042-2.356-3.619l.961-10.404c4.762,0.4 9.26,1.726 13.311,3.801zm-5.239,32.954c-0.854,0.854-2.24,0.854-3.096,0-0.854-0.854-0.854-2.24 0-3.095 0.855-0.854 2.241-0.854 3.096,0s0.855,2.241-7.10543e-15,3.095zm-12.707,9.534c-0.854-0.854-0.854-2.24 0-3.095 0.855-0.854 2.24-0.854 3.095,0 0.854,0.854 0.854,2.24 0,3.095-0.855,0.855-2.24,0.855-3.095,0zm1.586-4.972c-3.374,0-6.109-2.735-6.109-6.109 0-3.374 2.735-6.109 6.109-6.109 3.374,0 6.109,2.735 6.109,6.109 0,3.373-2.735,6.109-6.109,6.109zm-1.586-17.191c0.855-0.854 2.24-0.854 3.095,0 0.854,0.854 0.854,2.24 0,3.095-0.855,0.854-2.24,0.854-3.095,0-0.855-0.854-0.855-2.24 0-3.095zm-.563-24.191l.688,10.422c0.104,1.581-0.999,3.181-2.45,3.556l-3.318,.858c-1.452,0.376-3.192-0.489-3.867-1.922l-4.451-9.45c4.094-1.968 8.621-3.181 13.398-3.464zm-5.876,36.82c-0.854,0.854-2.24,0.854-3.095,0-0.855-0.854-0.855-2.24 0-3.095 0.854-0.854 2.24-0.854 3.095,0s0.854,2.241 0,3.095zm-12.033-30.77l5.879,8.627c0.892,1.309 0.754,3.247-0.306,4.308l-2.424,2.423c-1.061,1.061-2.999,1.198-4.308,0.306l-8.622-5.876c2.598-3.86 5.923-7.189 9.781-9.788zm-12.223,14.015l9.401,4.53c1.427,0.688 2.276,2.435 1.888,3.883l-.887,3.311c-0.388,1.448-1.998,2.537-3.578,2.419l-10.397-.778c0.321-4.77 1.571-9.285 3.573-13.365zm-3.572,18.247l10.397-.777c1.58-0.117 3.19,0.971 3.578,2.419l.887,3.312c0.389,1.448-0.461,3.195-1.888,3.883l-9.403,4.53c-2.002-4.08-3.252-8.595-3.571-13.367zm5.842,17.334l8.673-5.801c1.316-0.881 3.253-0.727 4.305,0.344l2.402,2.444c1.051,1.07 1.172,3.009 0.269,4.311l-5.955,8.574c-3.833-2.632-7.13-5.988-9.694-9.872zm13.9,12.358l4.616-9.371c0.7-1.421 2.455-2.255 3.9-1.854l3.303,.915c1.445,0.401 2.519,2.021 2.387,3.6l-.87,10.412c-4.766-0.364-9.271-1.66-13.336-3.702zm16.072,7.27c-0.704,0-1.274-0.57-1.274-1.274s0.57-1.274 1.274-1.274c0.704,0 1.274,0.57 1.274,1.274s-0.57,1.274-1.274,1.274zm2.463-3.546l-.779-10.421c-0.118-1.58 0.971-3.189 2.419-3.577l3.311-.887c1.449-0.389 3.196,0.461 3.884,1.888l4.542,9.428c-4.085,2.002-8.603,3.251-13.377,3.569zm17.608-6.014l-5.893-8.646c-0.892-1.309-0.755-3.247 0.307-4.308l2.424-2.424c1.061-1.061 2.998-1.198 4.307-0.306l8.65,5.896c-2.601,3.862-5.931,7.19-9.795,9.788zm12.104-13.739l-9.395-4.627c-1.421-0.699-2.255-2.454-1.854-3.9l.916-3.302c0.401-1.446 2.021-2.521 3.599-2.388l10.433,.872c-0.362,4.768-1.657,9.277-3.699,13.345z"/>
</svg>
