<?xml version='1.0' encoding='utf-8'?>
<!DOCTYPE svg PUBLIC '-//W3C//DTD SVG 1.1//EN' 'http://www.w3.org/Graphics/SVG/1.1/DTD/svg11.dtd'>
<svg width="100" version="1.1" xmlns="http://www.w3.org/2000/svg" height="100" viewBox="0 0 100 100" xmlns:xlink="http://www.w3.org/1999/xlink" enable-background="new 0 0 100 100">
  <path d="m53.207,45.109c0.634,0.634 1.939,4.895 1.939,5.971s-3.95,3.69-5.079,3.69c-1.128,0-5.079-2.651-5.079-3.69s1.306-5.336 1.94-5.971 5.644-0.634 6.279,7.10543e-15zm36.504,4.891c0,2.974-0.33,5.871-0.95,8.658-0.546,2.454-1.318,4.823-2.295,7.083-2.332,5.395-5.826,10.169-10.167,14.01-1.856,1.643-3.868,3.113-6.01,4.39-4.914,2.927-10.514,4.822-16.501,5.389-1.247,0.118-2.51,0.182-3.788,0.182-1.232,0-2.45-0.06-3.654-0.169-5.955-0.544-11.53-2.401-16.433-5.282-2.151-1.265-4.174-2.725-6.042-4.358-4.383-3.833-7.914-8.614-10.277-14.022-0.985-2.257-1.769-4.623-2.324-7.075-0.641-2.834-0.98-5.781-0.98-8.806 0-2.992 0.333-5.906 0.96-8.709 0.549-2.452 1.325-4.819 2.304-7.077 2.351-5.42 5.874-10.212 10.25-14.057 1.861-1.636 3.878-3.099 6.024-4.367 4.923-2.909 10.527-4.785 16.518-5.332 1.203-0.109 2.421-0.169 3.653-0.169 1.278,0 2.541,0.063 3.788,0.182 5.932,0.561 11.482,2.428 16.364,5.309 2.142,1.264 4.154,2.722 6.014,4.353 4.37,3.831 7.891,8.605 10.247,14.006 0.984,2.257 1.766,4.622 2.319,7.074 0.641,2.826 0.98,5.766 0.98,8.787zm-7.626-17.507c0.339,0.467 0.993,0.57 1.46,0.231 0.468-0.34 0.571-0.993 0.231-1.461-0.339-0.467-0.993-0.57-1.46-0.231-0.467,0.34-0.571,0.994-0.231,1.461zm-5.521-7.597c0.34,0.468 0.994,0.571 1.461,0.231 0.468-0.34 0.57-0.993 0.231-1.46-0.34-0.468-0.993-0.571-1.461-0.231-0.466,0.338-0.569,0.993-0.231,1.46zm-15.225,13.41l.029,.021c-0.354,0.486-0.565,1.083-0.565,1.731 0,1.628 1.32,2.948 2.948,2.948 0.212,0 0.418-0.024 0.617-0.067l18.079-7.219c-2.082-4.724-5.164-8.906-8.98-12.28l-12.128,14.866zm-.66,6.663c-0.805,0-1.457,0.651-1.457,1.456s0.652,1.457 1.457,1.457c0.804,0 1.456-0.652 1.456-1.457s-0.653-1.456-1.456-1.456zm4.988-27.991c0.549,0.179 1.139-0.122 1.317-0.671 0.179-0.55-0.122-1.14-0.671-1.318-0.55-0.178-1.14,0.123-1.317,0.672-0.179,0.548 0.121,1.139 0.671,1.317zm-8.932-2.902c0.549,0.178 1.14-0.122 1.317-0.672 0.179-0.549-0.122-1.139-0.671-1.317-0.55-0.179-1.14,0.122-1.317,0.671-0.178,0.55 0.123,1.139 0.671,1.318zm-4.382,19.965c0.067,1.569 1.356,2.821 2.941,2.821 0.854,0 1.622-0.365 2.16-0.946l10.422-16.526c-4.29-2.511-9.153-4.146-14.348-4.659l-1.175,19.31zm4.272,23.401c-0.804,0-1.456,0.652-1.456,1.456 0,0.805 0.652,1.457 1.456,1.457 0.805,0 1.457-0.652 1.457-1.457 0-0.803-0.652-1.456-1.457-1.456zm-8.014-18.726c0,0.805 0.651,1.456 1.456,1.456s1.456-0.651 1.456-1.456-0.651-1.457-1.456-1.457-1.456,0.652-1.456,1.457zm-6.664-25.312c0.179,0.549 0.769,0.851 1.317,0.672s0.85-0.769 0.672-1.318c-0.179-0.549-0.769-0.85-1.318-0.671-0.549,0.179-0.849,0.768-0.671,1.317zm-8.931,2.903c0.179,0.549 0.769,0.85 1.318,0.671 0.549-0.178 0.85-0.769 0.671-1.317-0.179-0.55-0.769-0.85-1.318-0.671-0.549,0.177-0.849,0.767-0.671,1.317zm-.892,3.083l10.472,16.43c0.541,0.637 1.345,1.043 2.245,1.043 1.585,0 2.874-1.252 2.942-2.819l-1.178-19.324c-5.244,0.497-10.155,2.137-14.481,4.67zm9.929,39.508c0,0.805 0.652,1.457 1.457,1.457 0.804,0 1.456-0.652 1.456-1.457 0-0.804-0.652-1.456-1.456-1.456-0.805,0-1.457,0.653-1.457,1.456zm-2.596-13.929c-0.805,0-1.457,0.651-1.457,1.456s0.652,1.457 1.457,1.457c0.804,0 1.456-0.652 1.456-1.457s-0.652-1.456-1.456-1.456zm-21.929-9.192l18.131,7.137c0.232,0.06 0.475,0.093 0.725,0.093 1.629,0 2.948-1.32 2.948-2.948 0-0.648-0.211-1.245-0.565-1.731l.005-.004-12.253-14.872c-3.825,3.386-6.912,7.584-8.991,12.325zm4.448-10.651c0.467,0.34 1.12,0.237 1.46-0.23 0.339-0.467 0.235-1.121-0.231-1.46-0.468-0.34-1.121-0.236-1.461,0.23-0.34,0.468-0.236,1.121 0.232,1.46zm-5.521,7.599c0.467,0.339 1.121,0.236 1.46-0.231 0.34-0.467 0.236-1.121-0.231-1.461-0.467-0.34-1.121-0.235-1.461,0.231-0.339,0.467-0.235,1.121 0.232,1.461zm-2.702,21.97c0-0.577-0.468-1.045-1.045-1.045-0.578,0-1.046,0.468-1.046,1.045s0.468,1.046 1.046,1.046c0.577,0 1.045-0.469 1.045-1.046zm0-9.39c0-0.577-0.468-1.046-1.045-1.046-0.578,0-1.046,0.469-1.046,1.046s0.468,1.045 1.046,1.045c0.577,0 1.045-0.468 1.045-1.045zm1.647,12.408l18.842-4.976c1.089-0.433 1.859-1.494 1.859-2.737 0-1.308-0.852-2.415-2.03-2.801l-18.688-4.838c-0.541,2.461-0.828,5.016-0.828,7.639 0.001,2.649 0.294,5.229 0.845,7.713zm2.516,9.794c-0.339-0.467-0.993-0.57-1.46-0.231-0.467,0.34-0.571,0.993-0.231,1.461 0.339,0.467 0.994,0.57 1.461,0.231 0.465-0.34 0.569-0.993 0.23-1.461zm5.52,7.597c-0.34-0.468-0.993-0.571-1.461-0.231-0.467,0.339-0.57,0.993-0.231,1.461 0.34,0.467 0.994,0.57 1.461,0.23 0.466-0.338 0.569-0.993 0.231-1.46zm15.446-13.602c0.284-0.452 0.45-0.986 0.45-1.561 0-1.628-1.319-2.948-2.948-2.948-0.3,0-0.588,0.048-0.86,0.131l-17.964,7.172c2.089,4.732 5.182,8.922 9.011,12.297l12.311-15.091zm-4.548,21.52c-0.55-0.179-1.14,0.122-1.318,0.671-0.178,0.55 0.123,1.139 0.671,1.317 0.55,0.179 1.14-0.122 1.318-0.671 0.179-0.549-0.122-1.138-0.671-1.317zm8.932,2.902c-0.55-0.178-1.14,0.122-1.318,0.672-0.179,0.549 0.122,1.139 0.671,1.317 0.55,0.179 1.14-0.122 1.317-0.672 0.178-0.549-0.123-1.138-0.67-1.317zm4.516-19.968c-0.068-1.567-1.357-2.818-2.941-2.818-0.954,0-1.8,0.456-2.339,1.16l-10.312,16.351c4.311,2.51 9.197,4.137 14.415,4.632l1.177-19.325zm2.285-9.903c1.414,0 6.364-3.275 6.364-4.624s-1.637-6.687-2.431-7.481c-0.795-0.795-7.071-0.796-7.867,0-0.795,0.796-2.431,6.179-2.431,7.481s4.951,4.624 6.365,4.624zm7.986,30.543c-0.178-0.55-0.768-0.851-1.317-0.671-0.549,0.178-0.85,0.768-0.671,1.316 0.178,0.549 0.769,0.851 1.317,0.672s0.849-0.768 0.671-1.317zm8.931-2.902c-0.179-0.55-0.769-0.851-1.317-0.672-0.55,0.179-0.851,0.768-0.671,1.317 0.178,0.549 0.768,0.85 1.317,0.672 0.548-0.178 0.85-0.769 0.671-1.317zm1.01-3.154l-10.316-16.186-.001,.001c-0.535-0.737-1.401-1.218-2.383-1.218-1.585,0-2.874,1.252-2.941,2.82l1.176,19.312c5.242-0.518 10.147-2.179 14.465-4.729zm14.498-16.363l-18.016-7.091c-0.231-0.06-0.475-0.093-0.726-0.093-1.628,0-2.948,1.32-2.948,2.948 0,0.555 0.155,1.07 0.422,1.513l12.36,15.002c3.79-3.381 6.847-7.561 8.908-12.279zm-4.467,10.696c-0.467-0.34-1.121-0.236-1.46,0.231-0.34,0.467-0.236,1.12 0.23,1.46 0.468,0.339 1.122,0.236 1.461-0.231 0.34-0.467 0.236-1.121-0.231-1.46zm5.52-7.598c-0.467-0.339-1.121-0.235-1.46,0.231-0.34,0.467-0.236,1.121 0.231,1.46 0.467,0.34 1.121,0.236 1.461-0.23 0.339-0.466 0.235-1.122-0.232-1.461zm1.899-17.275c0-2.644-0.292-5.22-0.841-7.698l-18.533,4.893v0.001c-1.182,0.385-2.037,1.493-2.037,2.804 0,1.245 0.773,2.308 1.865,2.74l18.729,4.848c0.533-2.444 0.817-4.984 0.817-7.588zm2.895,4.695c0-0.577-0.469-1.045-1.046-1.045s-1.046,0.468-1.046,1.045 0.469,1.046 1.046,1.046 1.046-0.469 1.046-1.046zm0-9.39c0-0.577-0.469-1.046-1.046-1.046s-1.046,0.469-1.046,1.046 0.469,1.045 1.046,1.045 1.046-0.468 1.046-1.045zm6.661,4.695c0,24.853-20.146,45-45,45s-45-20.147-45-45 20.146-45 45-45 45,20.147 45,45zm-2.896,0c0-23.253-18.851-42.104-42.104-42.104s-42.103,18.851-42.103,42.104 18.85,42.104 42.103,42.104 42.104-18.851 42.104-42.104z"/>
</svg>
