<?xml version='1.0' encoding='utf-8'?>
<!DOCTYPE svg PUBLIC '-//W3C//DTD SVG 1.1//EN' 'http://www.w3.org/Graphics/SVG/1.1/DTD/svg11.dtd'>
<svg width="100" version="1.1" xmlns="http://www.w3.org/2000/svg" height="100" viewBox="0 0 100 100" xmlns:xlink="http://www.w3.org/1999/xlink" enable-background="new 0 0 100 100">
  <path d="m50,54.09c-2.258,0-4.089-1.831-4.089-4.09s1.831-4.09 4.089-4.09c2.259,0 4.09,1.831 4.09,4.09s-1.831,4.09-4.09,4.09zm31.82,27.729c-17.574,17.575-46.067,17.575-63.64,0.001-17.573-17.574-17.574-46.066 0-63.64 17.574-17.575 46.066-17.574 63.639,0 17.575,17.573 17.575,46.066 0.001,63.639zm-2.049-61.591c-16.441-16.442-43.1-16.442-59.542,0-16.443,16.443-16.442,43.102 0,59.543 16.442,16.442 43.099,16.441 59.542,0 16.443-16.442 16.443-43.1 0-59.543zm2.427,54.037c-13.401,17.78-38.678,21.334-56.462,7.933-17.782-13.4-21.334-38.678-7.934-56.461 13.4-17.782 38.679-21.334 56.462-7.936 17.781,13.401 21.335,38.678 7.934,56.464zm-4.839-33.144c-0.034,0.017-0.068,0.036-0.1,0.056-0.359,0.236-0.541,0.687-0.416,1.123 0.125,0.435 0.518,0.722 0.948,0.731 0.037,0.001 0.075-0.001 0.113-0.004 3.113-0.108 5.603,0.14 7.486,0.742-0.435-2.475-1.128-4.906-2.073-7.25-1.276,1.511-3.257,3.042-5.958,4.602zm-1.625-10.131c-2.581,1.155-5.799,3.254-9.563,6.239-1.355,1.074-3.101,2.52-5.2,4.382 0.646,0.843 1.197,1.762 1.637,2.742 2.637-0.956 4.738-1.799 6.327-2.477 4.421-1.885 7.801-3.712 10.048-5.428 1.134-0.867 2.375-2.013 2.846-3.153-0.592-1.13-1.247-2.233-1.964-3.303-1.227-0.13-2.828,0.414-4.131,0.998zm-16.511,13.843c-1.209,0-2.188,0.979-2.188,2.188s0.979,2.188 2.188,2.188c1.208,0 2.188-0.98 2.188-2.188s-0.98-2.188-2.188-2.188zm13.137-22.97c-0.369,1.943-1.34,4.25-2.92,6.935-0.021,0.032-0.041,0.065-0.059,0.098-0.197,0.383-0.133,0.865 0.19,1.183 0.323,0.317 0.806,0.373 1.186,0.169 0.033-0.018 0.065-0.039 0.096-0.06 2.661-1.629 4.952-2.64 6.89-3.042-1.575-1.911-3.37-3.685-5.383-5.283zm-9.576-1.192c-1.658,2.291-3.395,5.718-5.163,10.186-0.636,1.606-1.424,3.729-2.311,6.391 1.029,0.429 1.994,0.979 2.879,1.631 1.826-2.132 3.241-3.902 4.291-5.274 2.919-3.818 4.962-7.072 6.072-9.672 0.559-1.31 1.073-2.914 0.925-4.136-1.178-0.761-2.387-1.444-3.619-2.052-1.126,0.501-2.238,1.77-3.074,2.926zm-7.488-6.224c0.654,1.868 0.967,4.353 0.94,7.472-0.002,0.039-0.003,0.077-0.001,0.114 0.021,0.43 0.317,0.815 0.756,0.929s0.885-0.08 1.111-0.445c0.02-0.032 0.038-0.066 0.055-0.101 1.489-2.742 2.968-4.763 4.445-6.08-2.383-0.894-4.832-1.523-7.306-1.889zm-8.627,15.214c0.282,1.706 0.701,3.934 1.312,6.675 0.659-0.096 1.333-0.147 2.018-0.147 0.519,0 1.03,0.029 1.534,0.085 0.516-2.759 0.855-4.999 1.078-6.713 0.62-4.765 0.762-8.604 0.424-11.412-0.171-1.414-0.528-3.062-1.269-4.047-1.603-0.077-3.206-0.046-4.799,0.089-0.701,1.011-0.999,2.665-1.119,4.08-0.24,2.817 0.036,6.649 0.821,11.39zm3.331,8.471c-1.209,0-2.189,0.98-2.189,2.188s0.98,2.188 2.189,2.188c1.208,0 2.188-0.979 2.188-2.188s-0.98-2.188-2.188-2.188zm-5.607,11.868c0,3.097 2.51,5.606 5.607,5.606s5.606-2.51 5.606-5.606c0-3.096-2.51-5.606-5.606-5.606s-5.607,2.51-5.607,5.606zm-8.16-33.2c1.52,1.265 3.065,3.231 4.646,5.914 0.017,0.034 0.037,0.067 0.057,0.099 0.24,0.357 0.692,0.535 1.126,0.406 0.435-0.129 0.718-0.523 0.724-0.955 0-0.037-0.002-0.075-0.006-0.113-0.135-3.109 0.09-5.599 0.675-7.486-2.467,0.455-4.889,1.17-7.222,2.135zm-5.691,7.795c1.199,2.561 3.354,5.741 6.405,9.454 1.098,1.336 2.575,3.058 4.476,5.126 0.862-0.685 1.809-1.268 2.821-1.732-0.979-2.631-1.842-4.728-2.534-6.312-1.923-4.404-3.779-7.768-5.516-9.999-0.874-1.124-2.027-2.352-3.168-2.815-1.219,0.652-2.406,1.378-3.554,2.177-0.106,1.226 0.465,2.812 1.07,4.101zm10.235,20.238c-1.208,0-2.188,0.979-2.188,2.188 0,1.209 0.98,2.189 2.188,2.189 1.209,0 2.188-0.98 2.188-2.189 0.001-1.209-0.979-2.188-2.188-2.188zm-19.292-16.703c1.947,0.337 4.267,1.267 6.974,2.797 0.033,0.021 0.066,0.04 0.099,0.057 0.387,0.19 0.867,0.117 1.179-0.211 0.312-0.329 0.359-0.812 0.149-1.188-0.018-0.033-0.04-0.065-0.062-0.096-1.673-2.627-2.723-4.898-3.16-6.826-1.878,1.605-3.617,3.429-5.179,5.467zm-3.88,6.297c0.513,1.119 1.789,2.217 2.949,3.042 2.305,1.637 5.748,3.344 10.23,5.074 1.613,0.623 3.746,1.393 6.418,2.257 0.405-0.995 0.921-1.933 1.536-2.797-2.165-1.79-3.961-3.175-5.353-4.202-3.868-2.852-7.157-4.837-9.776-5.901-1.316-0.535-2.924-1.02-4.143-0.854-0.686,1.103-1.307,2.231-1.861,3.381zm-3.199,10.58c1.861-0.667 4.34-1.001 7.454-1.002 0.038,0.002 0.076,0.003 0.114,0 0.43-0.025 0.812-0.325 0.922-0.764 0.11-0.439-0.087-0.884-0.455-1.107-0.032-0.02-0.066-0.037-0.101-0.053-2.75-1.464-4.783-2.923-6.113-4.387-0.873,2.388-1.477,4.84-1.821,7.313zm-.265,7.392c0.999,0.719 2.647,1.046 4.061,1.191 2.812,0.29 6.648,0.08 11.402-0.622 1.711-0.252 3.947-0.632 6.698-1.196-0.074-0.58-0.113-1.172-0.113-1.772 0-0.479 0.024-0.951 0.072-1.417-2.766-0.492-5.01-0.813-6.728-1.021-4.77-0.578-8.611-0.686-11.415-0.323-1.409,0.183-3.049,0.552-4.028,1.297-0.051,1.29-0.035,2.579 0.051,3.863zm8.415,6.238c0.034-0.018 0.068-0.035 0.1-0.056 0.362-0.233 0.547-0.683 0.426-1.119-0.121-0.437-0.511-0.727-0.941-0.74-0.037-0.001-0.076,0.001-0.114,0.004-3.111,0.081-5.596-0.188-7.473-0.805 0.413,2.476 1.085,4.91 2.008,7.259 1.291-1.498 3.284-3.009 5.994-4.543zm1.537,10.144c2.59-1.133 5.826-3.204 9.618-6.156 1.364-1.062 3.123-2.493 5.24-4.338-0.637-0.849-1.178-1.773-1.609-2.757-2.647,0.934-4.759,1.759-6.354,2.423-4.437,1.847-7.833,3.644-10.094,5.341-1.14,0.855-2.389,1.988-2.871,3.122 0.583,1.138 1.23,2.248 1.939,3.327 1.223,0.138 2.825-0.391 4.131-0.962zm3.295,9.151c0.387-1.939 1.377-4.234 2.979-6.903 0.021-0.031 0.042-0.064 0.06-0.097 0.2-0.382 0.14-0.863-0.18-1.185-0.321-0.319-0.803-0.38-1.184-0.18-0.033,0.018-0.065,0.037-0.097,0.06-2.672,1.604-4.971,2.595-6.911,2.98 1.558,1.923 3.337,3.71 5.333,5.325zm9.822,1.397c1.658-2.291 3.395-5.718 5.163-10.186 0.636-1.607 1.424-3.731 2.311-6.394-1.067-0.445-2.066-1.021-2.978-1.706-1.845,2.116-3.276,3.875-4.338,5.238-2.953,3.793-5.023,7.028-6.156,9.619-0.569,1.303-1.097,2.899-0.962,4.123 1.263,0.832 2.562,1.575 3.889,2.229 1.125-0.5 2.236-1.769 3.071-2.923zm7.488,6.223c-0.653-1.868-0.966-4.353-0.94-7.471 0.003-0.038 0.003-0.076 0.001-0.114-0.021-0.431-0.317-0.815-0.756-0.929s-0.885,0.08-1.111,0.445c-0.02,0.032-0.038,0.066-0.054,0.101-1.489,2.74-2.967,4.762-4.444,6.078 2.383,0.894 4.832,1.524 7.304,1.89zm1.791-27.69c0-1.209-0.98-2.188-2.189-2.188-1.208,0-2.188,0.979-2.188,2.188 0,1.208 0.979,2.188 2.188,2.188 1.209,0.001 2.189-0.98 2.189-2.188zm6.658,12.502c-0.268-1.708-0.667-3.938-1.254-6.683-0.619,0.085-1.251,0.13-1.894,0.13-0.521,0-1.035-0.03-1.54-0.086-0.516,2.758-0.856,4.999-1.079,6.713-0.62,4.766-0.761,8.604-0.423,11.412 0.171,1.414 0.528,3.062 1.269,4.047 1.496,0.072 2.994,0.05 4.483-0.062 0.712-1.005 1.024-2.658 1.158-4.074 0.267-2.816 0.024-6.65-0.72-11.397zm2.553-10.313c1.208,0 2.188-0.98 2.188-2.188 0-1.209-0.979-2.188-2.188-2.188-1.209,0-2.189,0.979-2.189,2.188 0,1.207 0.98,2.188 2.189,2.188zm7.777,23.269c-1.511-1.277-3.041-3.259-4.601-5.958-0.018-0.035-0.036-0.068-0.057-0.1-0.237-0.359-0.688-0.541-1.123-0.417-0.435,0.126-0.722,0.519-0.731,0.949-0.001,0.037 0.002,0.075 0.005,0.113 0.107,3.112-0.14,5.601-0.741,7.484 2.473-0.434 4.904-1.125 7.248-2.071zm5.973-7.92c-1.199-2.56-3.354-5.74-6.405-9.453-1.097-1.336-2.572-3.055-4.471-5.12-0.894,0.709-1.878,1.31-2.932,1.782 0.956,2.637 1.799,4.739 2.477,6.328 1.886,4.421 3.712,7.801 5.429,10.047 0.866,1.134 2.012,2.375 3.151,2.846 1.313-0.688 2.589-1.46 3.82-2.316 0.11-1.229-0.462-2.821-1.069-4.114zm9.067-3.532c-1.949-0.336-4.271-1.266-6.983-2.799-0.033-0.021-0.066-0.04-0.1-0.058-0.386-0.189-0.866-0.117-1.179,0.212-0.312,0.329-0.358,0.812-0.148,1.188 0.018,0.032 0.039,0.064 0.062,0.095 1.676,2.633 2.727,4.906 3.162,6.837 1.88-1.608 3.621-3.434 5.186-5.475zm4.01-6.571c-0.52-1.118-1.811-2.21-2.981-3.026-2.319-1.618-5.776-3.295-10.274-4.985-1.617-0.606-3.753-1.357-6.428-2.197-0.412,1.038-0.945,2.015-1.584,2.911 2.162,1.787 3.955,3.17 5.346,4.196 3.868,2.852 7.156,4.837 9.776,5.901 1.32,0.536 2.935,1.023 4.154,0.853 0.74-1.19 1.404-2.41 1.991-3.653zm3.111-10.622c-1.856,0.686-4.335,1.042-7.454,1.07-0.039-0.001-0.077-0.002-0.115,0.001-0.429,0.028-0.809,0.332-0.914,0.772-0.106,0.44 0.095,0.883 0.465,1.104 0.032,0.019 0.066,0.036 0.101,0.052 2.77,1.442 4.817,2.887 6.159,4.342 0.85-2.4 1.434-4.861 1.758-7.341zm.284-3.536c0.04-1.286 0.01-2.571-0.088-3.851-1.004-0.713-2.659-1.026-4.076-1.16-2.814-0.266-6.649-0.022-11.396,0.721-1.707,0.268-3.938,0.666-6.681,1.253 0.085,0.621 0.131,1.254 0.131,1.898 0,0.437-0.021,0.869-0.062,1.295 2.767,0.467 5.012,0.769 6.729,0.961 4.775,0.536 8.617,0.611 11.418,0.223 1.412-0.196 3.054-0.582 4.025-1.34z"/>
</svg>
