<?xml version='1.0' encoding='utf-8'?>
<!DOCTYPE svg PUBLIC '-//W3C//DTD SVG 1.1//EN' 'http://www.w3.org/Graphics/SVG/1.1/DTD/svg11.dtd'>
<svg width="100" version="1.1" xmlns="http://www.w3.org/2000/svg" height="100" viewBox="0 0 100 100" xmlns:xlink="http://www.w3.org/1999/xlink" enable-background="new 0 0 100 100">
  <path d="m50,5c-24.853,0-45,20.147-45,45s20.147,45 45,45c24.854,0 45-20.147 45-45s-20.146-45-45-45zm0,87.104c-23.253,0-42.103-18.851-42.103-42.104s18.85-42.103 42.103-42.103 42.104,18.85 42.104,42.103-18.851,42.104-42.104,42.104zm0-82.42c-22.266,1.77636e-15-40.316,18.05-40.316,40.316 1.77636e-15,22.266 18.05,40.316 40.316,40.316 22.267,0 40.316-18.051 40.316-40.316 0-22.266-18.049-40.316-40.316-40.316zm35.855,27.285c0.689-0.223 1.431,0.154 1.654,0.844 0.225,0.688-0.153,1.429-0.843,1.654-0.689,0.223-1.43-0.154-1.654-0.843s0.154-1.431 0.843-1.655zm-5.782-10.443c0.588-0.425 1.408-0.295 1.835,0.292 0.426,0.585 0.296,1.407-0.291,1.833-0.587,0.426-1.407,0.296-1.834-0.291-0.426-0.586-0.296-1.407 0.29-1.834zm-8.724-8.144c0.426-0.586 1.247-0.716 1.834-0.29 0.586,0.425 0.716,1.246 0.291,1.833-0.427,0.586-1.248,0.716-1.835,0.29-0.586-0.425-0.717-1.246-0.29-1.833zm-10.816-5.049c0.225-0.689 0.965-1.066 1.654-0.842 0.689,0.224 1.066,0.964 0.843,1.654s-0.965,1.067-1.654,0.843c-0.689-0.225-1.066-0.966-0.843-1.655zm-7.297,18.275l.135-10.604c0,0 0.01-1.407 0.812-2.406 0.509-0.633 0.979-2.482 1.314-4.117 0.312-1.521 0.509-2.858 0.509-2.858l.877,3.101c10.563,2.049 19.474,8.723 24.541,17.83l3.221-.124c0,0-1.21,0.599-2.56,1.366-1.452,0.825-3.066,1.844-3.512,2.523-0.702,1.072-2.037,1.516-2.037,1.516l-10.026,3.398-2.912,.987c-4.957,0.786-9.613-2.597-10.397-7.555-0.001-0.006-0.002-0.013-0.003-0.019l.038-3.038zm-8.936,23.925c1.209,0 2.188,0.98 2.188,2.188 0,1.209-0.979,2.188-2.188,2.188-1.208,0-2.188-0.979-2.188-2.188 7.10543e-15-1.207 0.98-2.188 2.188-2.188zm-3.522-6.464c-1.208,0-2.188-0.98-2.188-2.188 0-1.209 0.98-2.188 2.188-2.188s2.188,0.979 2.188,2.188c0,1.208-0.98,2.188-2.188,2.188zm4.173,.621c0-2.789 2.261-5.049 5.049-5.049s5.048,2.261 5.048,5.049c0,2.788-2.26,5.049-5.048,5.049s-5.049-2.26-5.049-5.049zm10.749,5.843c1.208,0 2.188,0.98 2.188,2.188 0,1.209-0.98,2.188-2.188,2.188-1.209,0-2.188-0.979-2.188-2.188 0-1.207 0.979-2.188 2.188-2.188zm1.334-8.653c0-1.208 0.98-2.188 2.188-2.188 1.209,0 2.188,0.98 2.188,2.188s-0.979,2.188-2.188,2.188c-1.207-7.10543e-15-2.188-0.979-2.188-2.188zm-7.034-36.32c0.725-1.77636e-15 1.313,0.587 1.313,1.312s-0.588,1.314-1.313,1.314-1.312-0.588-1.312-1.313 0.587-1.313 1.312-1.313zm0,27.431c1.209,0 2.188,0.98 2.188,2.188s-0.979,2.189-2.188,2.189c-1.208,0-2.188-0.98-2.188-2.188s0.98-2.189 2.188-2.189zm-12.188-25.501c0.69-0.224 1.43,0.153 1.654,0.843 0.224,0.689-0.153,1.43-0.843,1.654-0.689,0.224-1.43-0.153-1.654-0.843-0.223-0.689 0.154-1.43 0.843-1.654zm-10.994,5.602c0.586-0.426 1.408-0.296 1.833,0.29 0.426,0.587 0.296,1.408-0.29,1.834-0.587,0.426-1.408,0.296-1.833-0.29-0.426-0.587-0.297-1.407 0.29-1.834zm-8.726,8.726c0.426-0.586 1.248-0.717 1.834-0.291 0.586,0.427 0.717,1.248 0.291,1.834-0.426,0.587-1.247,0.717-1.833,0.291-0.588-0.427-0.717-1.248-0.292-1.834zm.485,5.735c5.067-9.107 13.978-15.781 24.541-17.83l.877-3.101c0,0 0.196,1.336 0.508,2.857 0.336,1.636 0.807,3.485 1.315,4.118 0.802,0.999 0.812,2.406 0.812,2.406l.134,10.584 .039,3.076c-0.786,4.958-5.44,8.34-10.398,7.555-0.005-0.001-0.011-0.002-0.016-0.003l-2.881-.977-10.043-3.405c0,0-1.335-0.444-2.038-1.516-0.445-0.68-2.059-1.699-3.511-2.524-1.35-0.767-2.56-1.366-2.56-1.366l3.221,.126zm-6.087,5.259c0.224-0.689 0.965-1.066 1.654-0.843 0.69,0.224 1.067,0.965 0.843,1.654-0.224,0.69-0.964,1.067-1.654,0.843s-1.067-0.964-0.843-1.654zm-1.93,12.188c0-0.725 0.587-1.313 1.312-1.313 0.725,0 1.313,0.588 1.313,1.313 0,0.726-0.587,1.313-1.312,1.313s-1.313-0.588-1.313-1.313zm3.585,13.03c-0.689,0.225-1.43-0.153-1.654-0.843s0.154-1.43 0.843-1.654c0.689-0.224 1.43,0.153 1.654,0.843 0.224,0.689-0.154,1.431-0.843,1.654zm5.781,10.443c-0.586,0.426-1.407,0.296-1.833-0.291-0.427-0.586-0.296-1.407 0.291-1.833 0.585-0.427 1.407-0.297 1.833,0.29 0.426,0.587 0.296,1.408-0.291,1.834zm8.725,8.144c-0.426,0.587-1.247,0.717-1.833,0.29-0.587-0.426-0.716-1.247-0.291-1.834 0.426-0.586 1.247-0.717 1.833-0.289 0.588,0.425 0.718,1.246 0.291,1.833zm-.492-8.67c-0.782,0.213-2.248,1.43-3.479,2.554-1.149,1.049-2.096,2.018-2.096,2.018l1.116-3.031c-5.979-6.419-9.638-15.025-9.638-24.488 0-1.474 0.091-2.926 0.263-4.354l-2.68-1.794c0,0 1.333,0.227 2.876,0.4 1.659,0.186 3.562,0.31 4.321,0.022 1.198-0.455 2.539-0.029 2.539-0.029l10.108,3.144 2.937,.913c4.472,2.279 6.25,7.751 3.972,12.224-0.003,0.005-0.006,0.01-0.008,0.016l-1.818,2.437-6.342,8.5c-3.55271e-15-0.001-0.835,1.131-2.071,1.468zm11.307,13.72c-0.224,0.689-0.964,1.066-1.654,0.842-0.689-0.223-1.067-0.964-0.843-1.654 0.224-0.688 0.964-1.066 1.654-0.842 0.69,0.223 1.068,0.964 0.843,1.654zm10.534,2.773c-0.725,0-1.312-0.588-1.312-1.313 0-0.725 0.587-1.312 1.312-1.312s1.313,0.588 1.313,1.312c0,0.726-0.588,1.313-1.313,1.313zm12.188-1.93c-0.689,0.225-1.43-0.153-1.653-0.843-0.225-0.689 0.152-1.431 0.843-1.654 0.689-0.224 1.43,0.153 1.653,0.843 0.224,0.689-0.153,1.429-0.843,1.654zm2.981-4.923c-4.609,2.149-9.748,3.351-15.169,3.351s-10.56-1.202-15.168-3.352l-2.531,1.991c0,0 0.626-1.195 1.268-2.608 0.69-1.521 1.397-3.295 1.357-4.106-0.062-1.28 0.757-2.424 0.757-2.424l6.113-8.643 1.776-2.51c3.549-3.55 9.304-3.55 12.853,0 0.005,0.004 0.009,0.008 0.013,0.013l1.756,2.481 6.124,8.658c0,0 0.818,1.144 0.757,2.424-0.039,0.812 0.668,2.585 1.357,4.106 0.642,1.413 1.269,2.608 1.269,2.608l-2.532-1.989zm8.014-.68c-0.587,0.427-1.407,0.297-1.833-0.29-0.427-0.587-0.297-1.407 0.289-1.833 0.587-0.427 1.408-0.297 1.834,0.29 0.426,0.586 0.297,1.407-0.29,1.833zm4.233-4.388c0,0-0.946-0.969-2.095-2.018-1.232-1.124-2.697-2.341-3.479-2.554-1.236-0.337-2.071-1.47-2.071-1.47l-6.33-8.484-1.839-2.465c-2.279-4.473-0.501-9.945 3.972-12.224 0.006-0.002 0.011-0.005 0.017-0.008l2.901-.902 10.128-3.149c0,0 1.341-0.426 2.539,0.029 0.759,0.288 2.662,0.164 4.32-0.022 1.545-0.173 2.877-0.4 2.877-0.4l-2.68,1.794c0.172,1.427 0.263,2.88 0.263,4.354 0,9.463-3.659,18.069-9.637,24.487l1.114,3.032zm4.492-4.336c-0.427,0.586-1.247,0.716-1.834,0.29-0.587-0.427-0.717-1.247-0.29-1.833 0.426-0.588 1.247-0.718 1.833-0.291 0.587,0.425 0.717,1.247 0.291,1.834zm5.602-10.995c-0.224,0.689-0.964,1.066-1.654,0.843-0.689-0.225-1.066-0.964-0.843-1.654 0.225-0.689 0.965-1.066 1.654-0.843 0.689,0.224 1.067,0.964 0.843,1.654zm.618-10.876c-0.726,0-1.312-0.588-1.313-1.312 0-0.725 0.588-1.313 1.313-1.313 0.725,0 1.312,0.588 1.312,1.313 0,0.725-0.587,1.312-1.312,1.312zm-38.128,2.468c-2.259,0-4.09-1.831-4.09-4.09s1.831-4.09 4.09-4.09c2.258,0 4.089,1.831 4.089,4.09s-1.83,4.09-4.089,4.09z"/>
</svg>
