<?xml version='1.0' encoding='utf-8'?>
<!DOCTYPE svg PUBLIC '-//W3C//DTD SVG 1.1//EN' 'http://www.w3.org/Graphics/SVG/1.1/DTD/svg11.dtd'>
<svg width="100" version="1.1" xmlns="http://www.w3.org/2000/svg" height="100" viewBox="0 0 100 100" xmlns:xlink="http://www.w3.org/1999/xlink" enable-background="new 0 0 100 100">
  <path d="m38.864,36.111l1.223-23.765c-6.603,1.727-12.657,5.178-17.61,10.131-4.953,4.954-8.404,11.008-10.13,17.61l23.77-1.239c0.45-1.279 1.466-2.291 2.747-2.737zm-5.849-.364l-17.364,.905c3.738-9.611 11.393-17.265 21.005-21.002l-.894,17.36c-1.281,0.446-2.297,1.457-2.747,2.737zm7.318,1.892c1.488,0 2.694,1.206 2.694,2.694 0,1.488-1.206,2.694-2.694,2.694-1.488,0-2.694-1.206-2.694-2.694 7.10543e-15-1.488 1.206-2.694 2.694-2.694zm.869-1.691l1.243-24.142c2.462-0.481 4.99-0.729 7.555-0.729s5.093,0.248 7.556,0.729l1.258,24.139c-2.061,0.398-3.617,2.211-3.617,4.388 0,0.886 0.259,1.711 0.704,2.407-1.61-1.31-3.663-2.096-5.9-2.096s-4.291,0.787-5.901,2.097c0.445-0.695 0.705-1.521 0.705-2.407-0.002-2.172-1.55-3.981-3.603-4.386zm22.676,2.884l23.775,1.255c-1.727-6.602-5.178-12.656-10.131-17.609s-11.007-8.404-17.609-10.13l1.239,23.77c1.268,0.445 2.274,1.448 2.726,2.714zm20.469-2.186l-17.368-.916c-0.452-1.266-1.458-2.268-2.726-2.715l-.905-17.364c9.609,3.737 17.26,11.388 20.999,20.995zm-34.347,6.39c-3.846,0-6.964,3.118-6.964,6.964s3.118,6.964 6.964,6.964c3.846,0 6.964-3.118 6.964-6.964s-3.118-6.964-6.964-6.964zm0,12.605c-3.115,0-5.641-2.525-5.641-5.641s2.525-5.641 5.641-5.641 5.641,2.525 5.641,5.641-2.526,5.641-5.641,5.641zm-14.052,3.158l-24.142-1.243c-0.481-2.463-0.729-4.99-0.729-7.556s0.248-5.093 0.729-7.556l24.139-1.258c0.398,2.061 2.211,3.617 4.388,3.617 0.887,0 1.712-0.259 2.407-0.704-1.311,1.61-2.097,3.663-2.097,5.901 0,2.237 0.787,4.291 2.097,5.9-0.695-0.444-1.521-0.704-2.407-0.704-2.171,0-3.981,1.549-4.385,3.603zm23.719-21.16c1.487,0 2.694,1.206 2.694,2.694 0,1.488-1.207,2.694-2.694,2.694-1.488,0-2.694-1.206-2.694-2.694 0-1.488 1.206-2.694 2.694-2.694zm29.256,12.361c0,2.565-0.247,5.093-0.729,7.556l-24.136,1.273c-0.393-2.068-2.208-3.633-4.391-3.633-0.887,0-1.712,0.259-2.406,0.704 1.31-1.61 2.096-3.663 2.096-5.9s-0.786-4.291-2.096-5.9c0.694,0.445 1.52,0.704 2.406,0.704 2.183,0 3.998-1.564 4.391-3.632l24.136,1.273c0.482,2.462 0.729,4.99 0.729,7.555zm-38.923-41.278c-22.797-1.77636e-15-41.278,18.481-41.278,41.278-1.77636e-15,22.797 18.48,41.278 41.278,41.278 22.797,0 41.278-18.481 41.278-41.278 1.42109e-14-22.797-18.481-41.278-41.278-41.278zm28.29,69.568c-7.557,7.557-17.603,11.719-28.29,11.719s-20.734-4.162-28.291-11.719-11.718-17.603-11.718-28.29 4.162-20.734 11.718-28.291 17.604-11.718 28.291-11.718 20.733,4.162 28.29,11.718 11.719,17.604 11.719,28.291-4.162,20.733-11.719,28.29zm-17.122-14.412l-1.254,23.775c6.602-1.727 12.655-5.178 17.608-10.131s8.404-11.007 10.131-17.608l-23.775,1.254c-0.45,1.261-1.449,2.26-2.71,2.71zm5.811,.392l17.367-.916c-3.737,9.606-11.386,17.255-20.992,20.993l.916-17.367c1.26-0.451 2.259-1.45 2.709-2.71zm-30.868-3.134l-23.765-1.224c1.727,6.603 5.178,12.657 10.131,17.61 4.954,4.953 11.007,8.404 17.609,10.131l-1.255-23.775c-1.27-0.453-2.276-1.466-2.72-2.742zm-20.462,2.208l17.36,.894c0.444,1.276 1.449,2.289 2.72,2.742l.917,17.367c-9.609-3.739-17.261-11.393-20.997-21.003zm24.684-.983c-1.488,0-2.694-1.207-2.694-2.694 0-1.488 1.206-2.694 2.694-2.694 1.488,0 2.694,1.206 2.694,2.694 0,1.487-1.206,2.694-2.694,2.694zm19.334,0c-1.488,0-2.694-1.207-2.694-2.694 0-1.488 1.206-2.694 2.694-2.694 1.487,0 2.694,1.206 2.694,2.694-7.10543e-15,1.487-1.207,2.694-2.694,2.694zm-.838,1.697l-1.273,24.136c-2.463,0.482-4.99,0.729-7.556,0.729s-5.093-0.247-7.556-0.729l-1.274-24.136c2.068-0.393 3.633-2.209 3.633-4.391 0-0.887-0.259-1.712-0.704-2.407 1.61,1.311 3.664,2.097 5.901,2.097s4.29-0.786 5.9-2.096c-0.445,0.694-0.704,1.52-0.704,2.406 0,2.183 1.565,3.998 3.633,4.391zm-8.829-59.058c-24.853,0-45,20.147-45,45 0,24.854 20.147,45 45,45 24.853,0 45-20.146 45-45 0-24.853-20.147-45-45-45zm0,87.104c-23.253,0-42.103-18.851-42.103-42.104s18.85-42.103 42.103-42.103 42.104,18.85 42.104,42.103-18.851,42.104-42.104,42.104z"/>
</svg>
