<?xml version='1.0' encoding='utf-8'?>
<!DOCTYPE svg PUBLIC '-//W3C//DTD SVG 1.1//EN' 'http://www.w3.org/Graphics/SVG/1.1/DTD/svg11.dtd'>
<svg width="100" version="1.1" xmlns="http://www.w3.org/2000/svg" height="100" viewBox="0 0 100 100" xmlns:xlink="http://www.w3.org/1999/xlink" enable-background="new 0 0 100 100">
  <path d="m50,5c-24.853,0-45,20.147-45,45 0,24.852 20.147,45 45,45 24.854,0 45-20.147 45-45 0-24.853-20.146-45-45-45zm0,87.104c-23.253,0-42.103-18.851-42.103-42.104 1.77636e-15-23.253 18.85-42.103 42.103-42.103s42.104,18.85 42.104,42.103c0,23.253-18.851,42.104-42.104,42.104zm0-82.42c-22.266,1.77636e-15-40.316,18.05-40.316,40.316 1.77636e-15,22.266 18.05,40.316 40.316,40.316 22.267,0 40.316-18.051 40.316-40.316 0-22.266-18.049-40.316-40.316-40.316zm33.513,53.317l-5.823-7.368 8.229-4.5c-0.129,4.174-0.97,8.169-2.406,11.868zm-69.431-11.868l8.229,4.5-5.824,7.367c-1.435-3.698-2.277-7.693-2.405-11.867zm2.405-14.134l5.824,7.367-8.229,4.501c0.128-4.174 0.97-8.169 2.405-11.868zm22.137,30.189l1.455,2.66-4.32,1.266-.422-4.253 3.287,.327zm-3.487-2.325l-.233-2.343 1.665,.91 .911,1.665-2.343-.232zm5.909,6.754l2.362,4.319-6.648,5.256-.804-8.085 5.09-1.49zm-.049-4.193l1.887,.188 1.306,1.032-2.177,.638-1.016-1.858zm1.983,3.627l3.104-.909 2.328,1.84-3.438,2.717-1.994-3.648zm5.421-1.588l1.599-.469 1.599,.469-1.599,1.264-1.599-1.264zm1.599,3.773l4.066,3.214-4.066,7.436-4.067-7.436 4.067-3.214zm1.588-1.255l2.327-1.84 3.104,.909-1.994,3.647-3.437-2.716zm4.222-3.336l1.307-1.033 1.888-.188-1.017,1.858-2.178-.637zm3.144,2.972l5.09,1.491-.803,8.084-6.649-5.256 2.362-4.319zm.968-1.768l1.455-2.661 3.288-.326-.423,4.253-4.32-1.266zm2.599-4.753l.91-1.665 1.664-.91-.232,2.342-2.342,.233zm-.288-3.254c-0.165,0.09-0.301,0.226-0.391,0.392l-1.694,3.098-3.514,.35c-0.188,0.019-0.366,0.09-0.514,0.207l-2.629,2.078-3.215-.942c-0.181-0.053-0.373-0.053-0.554,0l-3.216,.942-2.628-2.078c-0.148-0.116-0.326-0.188-0.513-0.207l-3.513-.349-1.695-3.099c-0.09-0.166-0.226-0.302-0.392-0.392l-3.098-1.694-.35-3.514c-0.019-0.188-0.09-0.366-0.207-0.514l-2.078-2.629 .942-3.215c0.053-0.181 0.053-0.373 0-0.554l-.942-3.215 2.078-2.628c0.117-0.148 0.189-0.326 0.208-0.513l.349-3.514 3.098-1.695c0.166-0.09 0.301-0.226 0.392-0.391l1.694-3.099 3.514-.349c0.188-0.019 0.366-0.09 0.513-0.207l2.628-2.078 3.215,.942c0.181,0.053 0.373,0.053 0.554,0l3.215-.942 2.628,2.078c0.148,0.117 0.326,0.188 0.514,0.207l3.515,.35 1.694,3.098c0.09,0.165 0.226,0.301 0.391,0.391l3.099,1.695 .35,3.513c0.019,0.188 0.09,0.366 0.207,0.513l2.077,2.628-.941,3.216c-0.053,0.181-0.053,0.373 0,0.554l.941,3.216-2.077,2.629c-0.117,0.147-0.189,0.325-0.208,0.513l-.349,3.514-3.098,1.694zm-30.878-6.033l1.033,1.307 .188,1.888-1.858-1.017 .637-2.178zm-.818-4.211l-1.263-1.598 1.263-1.598 .468,1.598-.468,1.598zm.181-9.585l1.858-1.017-.188,1.888-1.033,1.307-.637-2.178zm-.567-1.935l-1.266-4.32 4.253-.423-.327,3.288-2.66,1.455zm-1.202,2.902l.909,3.105-1.839,2.327-2.717-3.437 3.647-1.995zm-2.185,7.02l-3.215,4.067-7.435-4.067 7.436-4.067 3.214,4.067zm1.255,1.587l1.839,2.327-.909,3.105-3.647-1.995 2.717-3.437zm2.132,8.334l2.661,1.455 .327,3.288-4.253-.422 1.265-4.321zm31.226-27.109l-1.455-2.661 4.32-1.266 .423,4.253-3.288-.326zm3.486,2.325l.233,2.341-1.665-.911-.91-1.664 2.342,.234zm-5.908-6.755l-2.363-4.319 6.648-5.255 .804,8.084-5.089,1.49zm.049,4.194l-1.889-.188-1.307-1.033 2.179-.638 1.017,1.859zm-1.983-3.627l-3.105,.909-2.327-1.839 3.438-2.717 1.994,3.647zm-5.423,1.588l-1.598,.468-1.598-.468 1.598-1.264 1.598,1.264zm-1.598-3.773l-4.066-3.215 4.066-7.435 4.066,7.435-4.066,3.215zm-1.588,1.255l-2.327,1.839-3.104-.909 1.995-3.647 3.436,2.717zm-4.221,3.336l-1.306,1.033-1.888,.188 1.016-1.858 2.178,.637zm-3.145-2.973l-5.089-1.491 .804-8.084 6.648,5.255-2.363,4.32zm-.967,1.769l-1.455,2.66-3.288,.327 .422-4.252 4.321,1.265zm-2.6,4.753l-.91,1.664-1.665,.911 .233-2.342 2.342-.233zm31.803,23.082l-1.858,1.017 .188-1.888 1.033-1.306 .637,2.177zm-1.67-15.102l-.188-1.888 1.857,1.017-.638,2.177-1.031-1.306zm1.383,7.116l.468-1.599 1.264,1.599-1.264,1.598-.468-1.598zm1.147-3.916l.909-3.104 3.647,1.995-2.717,3.437-1.839-2.328zm-.292-6.006l-2.661-1.455-.326-3.288 4.252,.423-1.265,4.32zm-2.662,21.298l2.66-1.455 1.266,4.32-4.252,.423 .326-3.288zm3.863-4.356l-.909-3.104 1.84-2.328 2.717,3.438-3.648,1.994zm2.186-7.02l3.214-4.066 7.435,4.066-7.435,4.066-3.214-4.066zm2.701-6.592l-4.319-2.362 1.49-5.089 8.084,.804-5.255,6.647zm-4.26-9.573l-5.015-.499-.498-5.015 7.796-2.283-2.283,7.797zm-5.711-7.507l-.891-8.958c3.519,1.628 6.729,3.809 9.521,6.431l-8.63,2.527zm-10.333-4.018l-4.501-8.229c4.175,0.129 8.17,0.97 11.868,2.406l-7.367,5.823zm-11.267,.001l-7.367-5.824c3.698-1.436 7.693-2.276 11.868-2.406l-4.501,8.23zm-10.333,4.017l-8.63-2.527c2.792-2.622 6.002-4.802 9.521-6.431l-.891,8.958zm-.199,1.994l-.498,5.014-5.015,.499-2.284-7.796 7.797,2.283zm-5.452,12.723l-4.319,2.362-5.255-6.648 8.084-.804 1.49,5.09zm-4.32,15.547l4.319,2.362-1.491,5.09-8.084-.804 5.256-6.648zm4.26,9.572l5.015,.499 .498,5.014-7.796,2.284 2.283-7.797zm5.711,7.507l.891,8.959c-3.519-1.628-6.729-3.809-9.521-6.431l8.63-2.528zm10.333,4.018l4.501,8.229c-4.175-0.13-8.169-0.97-11.868-2.406l7.367-5.823zm11.267,0l7.367,5.823c-3.698,1.436-7.693,2.276-11.868,2.406l4.501-8.229zm10.333-4.018l8.631,2.528c-2.792,2.622-6.003,4.802-9.521,6.431l.89-8.959zm.198-1.993l.498-5.015 5.015-.499 2.283,7.797-7.796-2.283zm5.453-12.724l4.319-2.362 5.255,6.648-8.084,.803-1.49-5.089zm6.071-14.588l5.824-7.366c1.437,3.698 2.277,7.693 2.406,11.868l-8.23-4.502zm4.941-9.442l-8.958-.891 2.527-8.63c2.622,2.792 4.803,6.002 6.431,9.521zm-58.829-9.521l2.527,8.63-8.958,.891c1.629-3.519 3.809-6.73 6.431-9.521zm-6.431,39.673l8.958,.891-2.527,8.631c-2.622-2.792-4.802-6.003-6.431-9.522zm58.829,9.521l-2.527-8.631 8.958-.89c-1.628,3.519-3.809,6.73-6.431,9.521zm-11.216-24.841l.829-2.831-1.828-2.313c-0.104-0.13-0.166-0.287-0.183-0.452l-.308-3.092-2.727-1.492c-0.146-0.08-0.265-0.199-0.345-0.345l-1.491-2.726-3.091-.305c-0.165-0.017-0.322-0.08-0.452-0.183l-2.313-1.829-2.83,.829c-0.159,0.046-0.328,0.046-0.487,0l-2.83-.829-2.313,1.829c-0.13,0.103-0.287,0.166-0.451,0.182l-3.093,.308-1.491,2.727c-0.08,0.146-0.199,0.265-0.345,0.345l-2.727,1.491-.308,3.093c-0.016,0.165-0.08,0.322-0.182,0.452l-1.829,2.313 .829,2.83c0.046,0.159 0.046,0.328 0,0.487l-.829,2.83 1.829,2.313c0.103,0.13 0.166,0.287 0.183,0.452l.307,3.092 2.727,1.492c0.146,0.079 0.265,0.198 0.345,0.344l1.491,2.728 3.092,.308c0.165,0.016 0.322,0.079 0.452,0.182l2.313,1.828 2.83-.828c0.159-0.047 0.328-0.047 0.487,0l2.831,.828 2.313-1.828c0.13-0.103 0.286-0.166 0.451-0.183l3.093-.307 1.491-2.728c0.08-0.146 0.199-0.265 0.345-0.344l2.727-1.492 .307-3.092c0.017-0.165 0.08-0.321 0.183-0.451l1.829-2.313-.829-2.831c-0.048-0.161-0.048-0.329-0.002-0.489zm-16.569-11.444c0.855-0.855 2.24-0.855 3.095,0 0.854,0.854 0.854,2.24 0,3.095-0.855,0.854-2.24,0.854-3.095,0-0.855-0.855-0.855-2.24 0-3.095zm-7.045,13.236c-0.854,0.854-2.24,0.854-3.095,0-0.854-0.855-0.854-2.241 0-3.095 0.855-0.854 2.241-0.854 3.095,0 0.855,0.854 0.855,2.24 0,3.095zm10.14,10.14c-0.855,0.854-2.24,0.854-3.095,0-0.854-0.854-0.854-2.24 0-3.095 0.855-0.854 2.24-0.854 3.095,0 0.854,0.854 0.854,2.24 0,3.095zm-1.548-5.579c-3.374,0-6.109-2.735-6.109-6.109 0-3.375 2.735-6.109 6.109-6.109 3.374,0 6.109,2.735 6.109,6.109 0,3.374-2.735,6.109-6.109,6.109zm11.766-4.561c-0.854,0.854-2.24,0.854-3.095,0-0.854-0.855-0.854-2.241 0-3.095s2.24-0.854 3.095,0c0.855,0.854 0.855,2.24 0,3.095zm-7.676-1.548c0,2.258-1.831,4.089-4.09,4.089s-4.089-1.83-4.089-4.089c0-2.259 1.831-4.09 4.089-4.09s4.09,1.831 4.09,4.09z"/>
</svg>
